<svg width="26" height="26" viewBox="0 0 26 26" fill="none" xmlns="http://www.w3.org/2000/svg">
<path d="M12.85 19.95C12.11 19.95 11.42 19.88 10.78 19.74C10.14 19.6 9.55 19.39 9.01 19.11V17.22C9.71 17.56 10.38 17.82 11.02 18C11.66 18.16 12.28 18.24 12.88 18.24C13.88 18.24 14.62 18.05 15.1 17.67C15.58 17.29 15.82 16.72 15.82 15.96C15.82 15.26 15.55 14.74 15.01 14.4C14.49 14.06 13.69 13.89 12.61 13.89H10.93V12.24H12.61C13.55 12.24 14.26 12.06 14.74 11.7C15.22 11.34 15.46 10.82 15.46 10.14C15.46 9.5 15.26 9.04 14.86 8.76C14.46 8.46 13.97 8.31 13.39 8.31C12.89 8.31 12.37 8.41 11.83 8.61C11.29 8.79 10.72 9.07 10.12 9.45L9.07 8.07C9.71 7.59 10.38 7.23 11.08 6.99C11.8 6.73 12.56 6.6 13.36 6.6C14.76 6.6 15.81 6.91 16.51 7.53C17.21 8.15 17.56 8.94 17.56 9.9C17.56 10.7 17.34 11.38 16.9 11.94C16.46 12.48 15.8 12.87 14.92 13.11L14.89 12.81C15.91 12.99 16.67 13.35 17.17 13.89C17.69 14.41 17.95 15.12 17.95 16.02C17.95 17.18 17.53 18.13 16.69 18.87C15.87 19.59 14.59 19.95 12.85 19.95ZM13 25.65C11.3 25.65 9.7 25.33 8.2 24.69C6.7 24.05 5.38 23.17 4.24 22.05C3.12 20.91 2.24 19.59 1.6 18.09C0.96 16.59 0.64 14.99 0.64 13.29C0.64 11.57 0.96 9.97 1.6 8.49C2.24 6.99 3.12 5.68 4.24 4.56C5.38 3.42 6.7 2.53 8.2 1.89C9.7 1.25 11.3 0.929998 13 0.929998C14.72 0.929998 16.32 1.25 17.8 1.89C19.3 2.53 20.61 3.42 21.73 4.56C22.87 5.68 23.76 6.99 24.4 8.49C25.04 9.97 25.36 11.57 25.36 13.29C25.36 14.99 25.04 16.59 24.4 18.09C23.76 19.59 22.87 20.91 21.73 22.05C20.61 23.17 19.3 24.05 17.8 24.69C16.32 25.33 14.72 25.65 13 25.65ZM13 23.97C14.48 23.97 15.86 23.7 17.14 23.16C18.44 22.6 19.58 21.83 20.56 20.85C21.54 19.87 22.3 18.74 22.84 17.46C23.4 16.16 23.68 14.77 23.68 13.29C23.68 11.81 23.4 10.43 22.84 9.15C22.3 7.85 21.54 6.71 20.56 5.73C19.58 4.75 18.44 3.99 17.14 3.45C15.86 2.89 14.48 2.61 13 2.61C11.52 2.61 10.13 2.89 8.83 3.45C7.55 3.99 6.42 4.75 5.44 5.73C4.46 6.71 3.69 7.85 3.13 9.15C2.59 10.43 2.32 11.81 2.32 13.29C2.32 14.77 2.59 16.16 3.13 17.46C3.69 18.74 4.46 19.87 5.44 20.85C6.42 21.83 7.55 22.6 8.83 23.16C10.13 23.7 11.52 23.97 13 23.97Z" fill="#4bffa5"/>
</svg>